# xmcd
#
# Track frame offsets: 
#        150
#        27682
#        46276
#        65359
#        81859
#        103699
#        118768
#        145951
#        160006
#        173071
#        193107
#        216595
#
# Disc length: 3197 seconds
#
# Revision: 0
# Processed by: cddbd v1.5.2PL0 Copyright (c) Steve Scherf et al.
# Submitted via: ExactAudioCopy v1.3
#
DISCID=b00c7b0c
DTITLE=Corin Raymond - There Will Always Be A Small Time
DYEAR=2009
DGENRE=Alt. Country
TTITLE0=There Will Always Be A Small Time
TTITLE1=Michelene
TTITLE2=Leftover Tears
TTITLE3=Better Him Than Me
TTITLE4=Paid To Party
TTITLE5=The Lonely One
TTITLE6=If Wishes Were Horses
TTITLE7=Winter Is The Warmest Time Of Year
TTITLE8=Waitin' On The Ending Of The Day
TTITLE9=Stealin' My Heart
TTITLE10=Blue Mermaid Dress
TTITLE11=I Wish I Was In Love
EXTD=
EXTT0=
EXTT1=
EXTT2=
EXTT3=
EXTT4=
EXTT5=
EXTT6=
EXTT7=
EXTT8=
EXTT9=
EXTT10=
EXTT11=
PLAYORDER=
